<?xml version="1.0" encoding="UTF-8"?>
<!-- Generator: Adobe Illustrator 19.1.0, SVG Export Plug-In . SVG Version: 6.00 Build 0)  -->
<svg version="1.1" id="Camada_1" xmlns="http://www.w3.org/2000/svg" xmlns:xlink="http://www.w3.org/1999/xlink" x="0px" y="0px" viewBox="-50 4 230 74" style="enable-background:new -50 4 230 74;" xml:space="preserve">
<style type="text/css">
	.st0{fill:#757B82;}
	.st1{fill:#3E96DB;}
	.st2{fill:#55924E;}
</style>
<g>
	<g>
		<path class="st0" d="M-48.2,34.2L-48.2,34.2c0-3.9,2.9-7.1,7.1-7.1c2.6,0,4.1,0.9,5.4,2.1l-1.9,2.2c-1.1-1-2.1-1.5-3.5-1.5    c-2.3,0-4,1.9-4,4.3v0c0,2.3,1.6,4.3,4,4.3c1.6,0,2.5-0.6,3.6-1.6l1.9,1.9c-1.4,1.5-3,2.4-5.6,2.4C-45.2,41.2-48.2,38.1-48.2,34.2    z"/>
		<path class="st0" d="M-34.9,34.2L-34.9,34.2c0-3.9,3.1-7.1,7.3-7.1c4.2,0,7.3,3.1,7.3,7v0c0,3.9-3.1,7.1-7.3,7.1    C-31.9,41.2-34.9,38.1-34.9,34.2z M-23.5,34.2L-23.5,34.2c0-2.4-1.7-4.3-4.1-4.3c-2.4,0-4.1,1.9-4.1,4.3v0c0,2.3,1.7,4.3,4.1,4.3    C-25.2,38.5-23.5,36.5-23.5,34.2z"/>
		<path class="st0" d="M-18.3,27.3h2.8l6.4,8.4v-8.4h3V41h-2.6l-6.6-8.7V41h-3V27.3z"/>
		<path class="st0" d="M-3.8,39l1.8-2.1c1.2,1,2.5,1.7,4.1,1.7c1.2,0,2-0.5,2-1.3v0c0-0.8-0.5-1.2-2.8-1.7c-2.8-0.7-4.5-1.5-4.5-4.2    v0c0-2.5,2-4.1,4.8-4.1c2,0,3.7,0.6,5.1,1.7l-1.6,2.3c-1.2-0.8-2.4-1.4-3.6-1.4c-1.2,0-1.8,0.5-1.8,1.2v0c0,0.9,0.6,1.2,3,1.8    c2.8,0.7,4.3,1.7,4.3,4.1v0c0,2.7-2.1,4.2-5,4.2C0,41.2-2.1,40.5-3.8,39z"/>
		<path class="st0" d="M9.7,27.3H20V30h-7.3v2.8h6.5v2.7h-6.5v2.9h7.4V41H9.7V27.3z"/>
		<path class="st0" d="M23.2,27.3h6.3c1.7,0,3.1,0.5,4,1.4c0.8,0.8,1.2,1.8,1.2,3.1v0c0,2.2-1.2,3.6-2.9,4.2l3.3,4.9h-3.5l-2.9-4.4    h0h-2.3V41h-3V27.3z M29.3,34c1.5,0,2.3-0.8,2.3-1.9v0c0-1.3-0.9-2-2.4-2h-3V34H29.3z"/>
		<path class="st0" d="M35.7,27.3h3.3l3.6,9.6l3.6-9.6h3.2l-5.5,13.8h-2.7L35.7,27.3z"/>
		<path class="st0" d="M54.1,27.2h2.8L62.7,41h-3.1l-1.3-3.1h-5.8L51.3,41h-3.1L54.1,27.2z M57.2,35.3l-1.8-4.4l-1.8,4.4H57.2z"/>
		<path class="st0" d="M66.1,30.1h-4.2v-2.8h11.3v2.8h-4.2V41h-3V30.1z"/>
		<path class="st0" d="M75.5,27.3h3V41h-3V27.3z"/>
		<path class="st0" d="M80.9,34.2L80.9,34.2c0-3.9,3.1-7.1,7.3-7.1c4.2,0,7.3,3.1,7.3,7v0c0,3.9-3.1,7.1-7.3,7.1    C84,41.2,80.9,38.1,80.9,34.2z M92.3,34.2L92.3,34.2c0-2.4-1.7-4.3-4.1-4.3c-2.4,0-4.1,1.9-4.1,4.3v0c0,2.3,1.7,4.3,4.1,4.3    C90.6,38.5,92.3,36.5,92.3,34.2z"/>
		<path class="st0" d="M98,27.3h2.8l6.4,8.4v-8.4h3V41h-2.6l-6.6-8.7V41h-3V27.3z"/>
		<path class="st0" d="M-46.3,46.4h1.5v13.3h-1.5V46.4z"/>
		<path class="st0" d="M-41.2,46.4h1.4l8.4,10.7V46.4h1.5v13.3h-1.2l-8.6-10.9v10.9h-1.5V46.4z"/>
		<path class="st0" d="M-22.9,47.8h-4.5v-1.4h10.5v1.4h-4.5v11.9h-1.5V47.8z"/>
		<path class="st0" d="M-14.3,46.4h9.6v1.4h-8.1v4.6h7.3v1.4h-7.3v4.7h8.2v1.4h-9.7V46.4z"/>
		<path class="st0" d="M-1.8,46.4h5.7c1.6,0,3,0.5,3.8,1.3c0.6,0.6,1,1.6,1,2.6v0c0,2.2-1.5,3.5-3.6,3.9l4.1,5.4H7.4l-3.9-5.2h0    h-3.8v5.2h-1.5V46.4z M3.8,53.2c2,0,3.4-1,3.4-2.7v0c0-1.6-1.3-2.6-3.4-2.6h-4.1v5.4H3.8z"/>
		<path class="st0" d="M11.7,46.4h1.4l8.4,10.7V46.4H23v13.3h-1.2l-8.6-10.9v10.9h-1.5V46.4z"/>
		<path class="st0" d="M31.5,46.4h1.4l6.1,13.4h-1.6l-1.6-3.5h-7.3l-1.6,3.5h-1.5L31.5,46.4z M35.2,54.9l-3-6.8l-3,6.8H35.2z"/>
		<path class="st0" d="M43.1,47.8h-4.5v-1.4h10.5v1.4h-4.5v11.9h-1.5V47.8z"/>
		<path class="st0" d="M51.8,46.4h1.5v13.3h-1.5V46.4z"/>
		<path class="st0" d="M56.4,53.2L56.4,53.2c0-3.7,2.8-6.9,6.8-6.9c4.1,0,6.8,3.2,6.8,6.9c0,0,0,0,0,0c0,3.7-2.8,6.9-6.8,6.9    C59.1,60,56.4,56.8,56.4,53.2z M68.4,53.2L68.4,53.2c0-3.1-2.2-5.5-5.3-5.5c-3,0-5.2,2.4-5.2,5.5v0c0,3,2.2,5.5,5.3,5.5    C66.3,58.6,68.4,56.2,68.4,53.2z"/>
		<path class="st0" d="M72.9,46.4h1.4l8.4,10.7V46.4h1.5v13.3H83l-8.6-10.9v10.9h-1.5V46.4z"/>
		<path class="st0" d="M92.7,46.4h1.4l6.1,13.4h-1.6L97,56.3h-7.3l-1.6,3.5h-1.5L92.7,46.4z M96.4,54.9l-3-6.8l-3,6.8H96.4z"/>
		<path class="st0" d="M102.5,46.4h1.5v11.9h7.5v1.4h-9V46.4z"/>
	</g>
</g>
<path class="st1" d="M129.7,54.5c-5.2-5.2-8.4-12.4-8.4-20.4l0,0c0-7.9,3.2-15.2,8.4-20.4l0,0c5.2-5.2,12.4-8.4,20.4-8.4l0,0  c7.9,0,15.2,3.2,20.4,8.4l0,0c5.2,5.2,8.4,12.4,8.4,20.4l0,0c0,7.9-3.2,15.2-8.4,20.4l0,0c-5.2,5.2-12.4,8.4-20.4,8.4l0,0  c0,0,0,0,0,0l0,0C142.1,62.9,134.8,59.7,129.7,54.5L129.7,54.5z M137.5,21.6c-3.2,3.2-5.2,7.6-5.2,12.5l0,0c0,4.9,2,9.3,5.2,12.5  l0,0c3.2,3.2,7.6,5.2,12.5,5.2l0,0c4.9,0,9.3-2,12.5-5.2l0,0c3.2-3.2,5.2-7.6,5.2-12.5l0,0c0-4.9-2-9.3-5.2-12.5l0,0  c-3.2-3.2-7.6-5.2-12.5-5.2l0,0C145.1,16.5,140.7,18.4,137.5,21.6L137.5,21.6z"/>
<polygon class="st2" points="128.7,77.8 128.7,66.7 171.3,66.7 171.3,77.8 128.7,77.8 "/>
</svg>